<svg height="512" viewBox="0 0 128 128" width="512" xmlns="http://www.w3.org/2000/svg"><g id="icon"><path d="m75.56 74.06v-61.5a11.56 11.56 0 0 0 -11.56-11.56 11.56 11.56 0 0 0 -11.56 11.559v61.5a27.743 27.743 0 1 0 23.12 0z" fill="#dbe2eb"/><path d="m64 120.322q-.59 0-1.185-.033a21.349 21.349 0 0 1 -19.879-20.806 21.1 21.1 0 0 1 12.293-19.354l3.89-1.788v-65.782a4.881 4.881 0 1 1 9.762 0v65.782l3.89 1.788a21.052 21.052 0 0 1 -8.771 40.193z" fill="#ef5361"/><path d="m85.063 99.255a21.074 21.074 0 0 1 -21.063 21.07c-.4 0-.79-.011-1.191-.033a20.928 20.928 0 0 1 -13.757-6.345 20.138 20.138 0 0 0 7.78 2.026c.39.022.79.033 1.18.033a21.04 21.04 0 0 0 15.118-35.706 21.119 21.119 0 0 1 11.933 18.955z" fill="#da2a47"/><g fill="#2f3a5a"><path d="m90.734 66.666h-9.275a1 1 0 0 1 0-2h9.275a1 1 0 0 1 0 2z"/><path d="m87.747 58.026h-6.288a1 1 0 0 1 0-2h6.288a1 1 0 0 1 0 2z"/><path d="m90.734 50.04h-9.275a1 1 0 0 1 0-2h9.275a1 1 0 0 1 0 2z"/><path d="m87.747 41.4h-6.288a1 1 0 0 1 0-2h6.288a1 1 0 1 1 0 2z"/><path d="m90.734 33.414h-9.275a1 1 0 0 1 0-2h9.275a1 1 0 0 1 0 2z"/><path d="m87.747 24.773h-6.288a1 1 0 0 1 0-2h6.288a1 1 0 0 1 0 2z"/><path d="m90.734 16.787h-9.275a1 1 0 0 1 0-2h9.275a1 1 0 1 1 0 2z"/></g></g></svg>